{
    "asset": {
        "copyright": "(C)2024 ALMT66",
        "generator": "maya2glTF main fbbc95e5dc4d",
        "version": "2.0"
    },
    "scenes": [
        {
            "nodes": [
                6,
                4,
                2,
                0
            ]
        }
    ],
    "scene": 0,
    "nodes": [
        {
            "name": "Menu",
            "children": [
                1
            ],
            "translation": [
                -62.78973388671875,
                7.910806655883789,
                -0.5101128816604614
            ]
        },
        {
            "name": "Menu:PIV",
            "mesh": 0,
            "translation": [
                62.78973388671875,
                -7.910806655883789,
                0.5101128816604614
            ]
        },
        {
            "name": "Home",
            "children": [
                3
            ],
            "translation": [
                -117.1575698852539,
                8.306417465209961,
                -0.5101128816604614
            ]
        },
        {
            "name": "Home:PIV",
            "mesh": 1,
            "translation": [
                117.1575698852539,
                -8.306417465209961,
                0.5101128816604614
            ]
        },
        {
            "name": "CONTACT_US",
            "children": [
                5
            ],
            "translation": [
                101.85448455810549,
                8.845090866088868,
                -0.5101128816604614
            ]
        },
        {
            "name": "CONTACT_US:PIV",
            "mesh": 2,
            "translation": [
                -101.85448455810549,
                -8.845090866088868,
                0.5101128816604614
            ]
        },
        {
            "name": "About_us",
            "children": [
                7
            ],
            "translation": [
                8.57536506652832,
                8.84493637084961,
                -0.5101128816604614
            ]
        },
        {
            "name": "About_us:PIV",
            "mesh": 3,
            "translation": [
                -8.57536506652832,
                -8.84493637084961,
                0.5101128816604614
            ]
        }
    ],
    "meshes": [
        {
            "name": "MenuShape",
            "extras": {
                "targetNames": []
            },
            "primitives": [
                {
                    "attributes": {
                        "NORMAL": 1,
                        "POSITION": 2,
                        "TANGENT": 3,
                        "TEXCOORD_0": 4
                    },
                    "indices": 0,
                    "mode": 4,
                    "material": 0
                }
            ]
        },
        {
            "name": "HomeShape",
            "extras": {
                "targetNames": []
            },
            "primitives": [
                {
                    "attributes": {
                        "NORMAL": 6,
                        "POSITION": 7,
                        "TANGENT": 8,
                        "TEXCOORD_0": 9
                    },
                    "indices": 5,
                    "mode": 4,
                    "material": 0
                }
            ]
        },
        {
            "name": "CONTACT_USShape",
            "extras": {
                "targetNames": []
            },
            "primitives": [
                {
                    "attributes": {
                        "NORMAL": 11,
                        "POSITION": 12,
                        "TANGENT": 13,
                        "TEXCOORD_0": 14
                    },
                    "indices": 10,
                    "mode": 4,
                    "material": 0
                }
            ]
        },
        {
            "name": "About_usShape",
            "extras": {
                "targetNames": []
            },
            "primitives": [
                {
                    "attributes": {
                        "NORMAL": 16,
                        "POSITION": 17,
                        "TANGENT": 18,
                        "TEXCOORD_0": 19
                    },
                    "indices": 15,
                    "mode": 4,
                    "material": 0
                }
            ]
        }
    ],
    "materials": [
        {
            "name": "GLSLShader2",
            "pbrMetallicRoughness": {
                "baseColorFactor": [
                    1.0,
                    1.0,
                    1.0,
                    1.0
                ],
                "metallicFactor": 0.5,
                "roughnessFactor": 0.5
            },
            "emissiveFactor": [
                0.0,
                0.0,
                0.0
            ]
        }
    ],
    "accessors": [
        {
            "name": "MenuShape#0/indices",
            "bufferView": 0,
            "byteOffset": 0,
            "componentType": 5123,
            "count": 36924,
            "max": [
                7934
            ],
            "min": [
                0
            ],
            "type": "SCALAR"
        },
        {
            "name": "MenuShape#0/vertices/NORMAL",
            "bufferView": 1,
            "byteOffset": 0,
            "componentType": 5126,
            "count": 7935,
            "max": [
                1.0,
                1.0,
                1.0
            ],
            "min": [
                -1.0,
                -0.9999991655349731,
                -1.0
            ],
            "type": "VEC3"
        },
        {
            "name": "MenuShape#0/vertices/POSITION",
            "bufferView": 1,
            "byteOffset": 95220,
            "componentType": 5126,
            "count": 7935,
            "max": [
                -46.73800659179688,
                12.50813674926758,
                0.7398871183395386
            ],
            "min": [
                -78.84146118164063,
                3.3134765625,
                -1.7601128816604617
            ],
            "type": "VEC3"
        },
        {
            "name": "MenuShape#0/vertices/TANGENT",
            "bufferView": 2,
            "byteOffset": 0,
            "componentType": 5126,
            "count": 7935,
            "max": [
                1.0,
                1.0,
                1.0,
                1.0
            ],
            "min": [
                -0.938332498073578,
                -1.0,
                -1.0,
                -1.0
            ],
            "type": "VEC4"
        },
        {
            "name": "MenuShape#0/vertices/TEXCOORD_0",
            "bufferView": 3,
            "byteOffset": 0,
            "componentType": 5126,
            "count": 7935,
            "max": [
                0.9980080127716065,
                0.7617847323417664
            ],
            "min": [
                0.001992033096030355,
                0.0027205939404666425
            ],
            "type": "VEC2"
        },
        {
            "name": "HomeShape#0/indices",
            "bufferView": 0,
            "byteOffset": 73848,
            "componentType": 5123,
            "count": 36156,
            "max": [
                7835
            ],
            "min": [
                0
            ],
            "type": "SCALAR"
        },
        {
            "name": "HomeShape#0/vertices/NORMAL",
            "bufferView": 1,
            "byteOffset": 190440,
            "componentType": 5126,
            "count": 7836,
            "max": [
                1.0,
                1.0,
                1.0
            ],
            "min": [
                -1.0,
                -1.0,
                -1.0
            ],
            "type": "VEC3"
        },
        {
            "name": "HomeShape#0/vertices/POSITION",
            "bufferView": 1,
            "byteOffset": 284472,
            "componentType": 5126,
            "count": 7836,
            "max": [
                -101.60629272460938,
                13.29959487915039,
                0.7398871183395386
            ],
            "min": [
                -132.70884704589845,
                3.3132400512695314,
                -1.7601128816604617
            ],
            "type": "VEC3"
        },
        {
            "name": "HomeShape#0/vertices/TANGENT",
            "bufferView": 2,
            "byteOffset": 126960,
            "componentType": 5126,
            "count": 7836,
            "max": [
                1.0,
                1.0,
                1.0,
                1.0
            ],
            "min": [
                -0.9372843503952026,
                -1.0,
                -1.0,
                -1.0
            ],
            "type": "VEC4"
        },
        {
            "name": "HomeShape#0/vertices/TEXCOORD_0",
            "bufferView": 3,
            "byteOffset": 63480,
            "componentType": 5126,
            "count": 7836,
            "max": [
                0.9980080127716065,
                0.9980089664459229
            ],
            "min": [
                0.001992033096030355,
                0.01484757661819458
            ],
            "type": "VEC2"
        },
        {
            "name": "CONTACT_USShape#0/indices",
            "bufferView": 0,
            "byteOffset": 146160,
            "componentType": 5123,
            "count": 70194,
            "max": [
                14925
            ],
            "min": [
                0
            ],
            "type": "SCALAR"
        },
        {
            "name": "CONTACT_USShape#0/vertices/NORMAL",
            "bufferView": 1,
            "byteOffset": 378504,
            "componentType": 5126,
            "count": 14926,
            "max": [
                1.0,
                1.0,
                1.0
            ],
            "min": [
                -1.0,
                -0.9999991059303284,
                -1.0
            ],
            "type": "VEC3"
        },
        {
            "name": "CONTACT_USShape#0/vertices/POSITION",
            "bufferView": 1,
            "byteOffset": 557616,
            "componentType": 5126,
            "count": 14926,
            "max": [
                141.87860107421876,
                14.451091766357422,
                0.7398871183395386
            ],
            "min": [
                61.83036804199219,
                3.239089965820313,
                -1.7601128816604617
            ],
            "type": "VEC3"
        },
        {
            "name": "CONTACT_USShape#0/vertices/TANGENT",
            "bufferView": 2,
            "byteOffset": 252336,
            "componentType": 5126,
            "count": 14926,
            "max": [
                1.0,
                1.0,
                1.0,
                1.0
            ],
            "min": [
                -0.9778269529342653,
                -1.0,
                -1.0,
                -1.0
            ],
            "type": "VEC4"
        },
        {
            "name": "CONTACT_USShape#0/vertices/TEXCOORD_0",
            "bufferView": 3,
            "byteOffset": 126168,
            "componentType": 5126,
            "count": 14926,
            "max": [
                0.9980080127716065,
                0.9980089664459229
            ],
            "min": [
                0.0019920319318771364,
                0.002486049896106124
            ],
            "type": "VEC2"
        },
        {
            "name": "About_usShape#0/indices",
            "bufferView": 0,
            "byteOffset": 286548,
            "componentType": 5123,
            "count": 62352,
            "max": [
                13332
            ],
            "min": [
                0
            ],
            "type": "SCALAR"
        },
        {
            "name": "About_usShape#0/vertices/NORMAL",
            "bufferView": 1,
            "byteOffset": 736728,
            "componentType": 5126,
            "count": 13333,
            "max": [
                1.0,
                1.0,
                1.0
            ],
            "min": [
                -1.0,
                -1.0,
                -1.0
            ],
            "type": "VEC3"
        },
        {
            "name": "About_usShape#0/vertices/POSITION",
            "bufferView": 1,
            "byteOffset": 896724,
            "componentType": 5126,
            "count": 13333,
            "max": [
                41.94149017333985,
                14.450939178466797,
                0.7398871183395386
            ],
            "min": [
                -24.79075622558594,
                3.238933563232422,
                -1.7601128816604617
            ],
            "type": "VEC3"
        },
        {
            "name": "About_usShape#0/vertices/TANGENT",
            "bufferView": 2,
            "byteOffset": 491152,
            "componentType": 5126,
            "count": 13333,
            "max": [
                1.0,
                1.0,
                1.0,
                1.0
            ],
            "min": [
                -0.9778279066085817,
                -1.0,
                -1.0,
                -1.0
            ],
            "type": "VEC4"
        },
        {
            "name": "About_usShape#0/vertices/TEXCOORD_0",
            "bufferView": 3,
            "byteOffset": 245576,
            "componentType": 5126,
            "count": 13333,
            "max": [
                0.9980080127716065,
                0.9980089664459229
            ],
            "min": [
                0.0019920319318771364,
                0.002486049896106124
            ],
            "type": "VEC2"
        }
    ],
    "bufferViews": [
        {
            "name": "untitled/data/indices-2",
            "buffer": 0,
            "byteOffset": 2113440,
            "byteLength": 411252,
            "target": 34963
        },
        {
            "name": "untitled/data/vertices-12",
            "buffer": 0,
            "byteOffset": 704480,
            "byteLength": 1056720,
            "byteStride": 12,
            "target": 34962
        },
        {
            "name": "untitled/data/vertices-16",
            "buffer": 0,
            "byteOffset": 0,
            "byteLength": 704480,
            "byteStride": 16,
            "target": 34962
        },
        {
            "name": "untitled/data/vertices-8",
            "buffer": 0,
            "byteOffset": 1761200,
            "byteLength": 352240,
            "byteStride": 8,
            "target": 34962
        }
    ],
    "buffers": [
        {
            "name": "untitled/data",
            "byteLength": 2524692,
            "uri": "untitled0.bin"
        }
    ]
}
